<svg xmlns="http://www.w3.org/2000/svg" viewBox="0 0 768 192" fill="none">
  <title>UniverZAP</title>
  <g>
    <circle cx="96" cy="96" r="72" fill="#22C55E"/>
    <path d="M96 44c-28.7 0-52 21.3-52 47.6 0 9.4 3 18 8 25.4L40 152l34.7-7.4c5.2 1.9 10.8 3 16.6 3 28.7 0 52-21.3 52-47.6S124.7 44 96 44z" fill="#FFFFFF"/>
    <ellipse cx="77.5" cy="91" rx="6.2" ry="6.2" fill="#22C55E"/>
    <path d="M93.5 88.5c-0.5 1-0.7 2.3-0.5 3.5 0.5 3 3 5 6 4.5 2.5-0.5 4.5-2.5 5-5" stroke="#22C55E" stroke-width="2.5" stroke-linecap="round" fill="none"/>
    <path d="M73 107c5.5 7 13.5 11.5 22 11.5s16.5-4.5 22-11.5" stroke="#22C55E" stroke-width="5.5" stroke-linecap="round" fill="none"/>
  </g>
  <g font-family="-apple-system,BlinkMacSystemFont,'Segoe UI',Inter,Helvetica,Arial,sans-serif" font-weight="700">
    <text x="200" y="130" font-size="100" fill="#9CA3AF" letter-spacing="-3">univer</text>
    <text x="510" y="130" font-size="100" fill="#22C55E" letter-spacing="-3">ZAP</text>
  </g>
</svg>
